<?xml version="1.0" encoding="utf-8"?>
<!-- Generator: Adobe Illustrator 22.0.1, SVG Export Plug-In . SVG Version: 6.00 Build 0)  -->
<svg version="1.1" id="圖層_1" xmlns="http://www.w3.org/2000/svg" xmlns:xlink="http://www.w3.org/1999/xlink" x="0px" y="0px"
	 viewBox="0 0 300 300" style="enable-background:new 0 0 300 300;" xml:space="preserve">
<style type="text/css">
	.st0{fill:#A8D2F4;}
	.st1{fill:#FDCC9B;}
	.st2{fill:#FCBC85;}
	.st3{fill:#3B2519;}
	.st4{fill:#FFFFFF;}
	.st5{fill:#51362A;}
	.st6{fill:#F7945E;}
	.st7{fill:#F7941E;}
	.st8{fill:#F36C21;}
</style>
<g>
	<path class="st0" d="M300,150C300,67.2,232.8,0,150,0S0,67.2,0,150c0,49.5,24,93.3,60.9,120.7c8-18.5,50.5-41.4,89.1-41.4
		s81.2,22.9,89.1,41.4C276,243.3,300,199.5,300,150z"/>
</g>
<g>
	<rect x="131.4" y="212.4" class="st1" width="37.2" height="42"/>
	<path class="st2" d="M131.4,217.4c0,0,15.7,10,37.2,7.7v-12.7h-37.2V217.4z"/>
	<ellipse class="st2" cx="77.7" cy="147.4" rx="18.2" ry="20.9"/>
	<ellipse class="st2" cx="222.3" cy="147.4" rx="18.2" ry="20.9"/>
	<path class="st1" d="M222.2,107.5c0-30.7-22.3-53.2-72.2-53.2s-72.2,22.5-72.2,53.2S72.6,219.2,150,219.2S222.2,138.2,222.2,107.5z
		"/>
	<g>
		<g>
			<ellipse class="st3" cx="114.8" cy="142.4" rx="7.8" ry="8.6"/>
			<ellipse class="st4" cx="111.4" cy="138.6" rx="2.3" ry="2.4"/>
		</g>
		<path class="st5" d="M102.3,121c3.7,1.9,9.6-6.3,23.2,0.8c2.5,1.3,4-11.1-10.6-11.1C102.3,110.7,100.1,119.9,102.3,121z"/>
		<g>
			<ellipse class="st3" cx="186.1" cy="142.4" rx="7.8" ry="8.6"/>
			<ellipse class="st4" cx="182.7" cy="138.6" rx="2.3" ry="2.4"/>
		</g>
		<path class="st5" d="M197.7,121c-3.7,1.9-9.6-6.3-23.2,0.8c-2.5,1.3-4-11.1,10.6-11.1C197.7,110.7,199.9,119.9,197.7,121z"/>
	</g>
	<path class="st2" d="M150,172.7c-7.7,0-12.4-5.8-12.4-3c0,2.8,2.2,8.1,12.4,8.1s12.4-5.3,12.4-8.1
		C162.4,166.9,157.7,172.7,150,172.7z"/>
	<path class="st2" d="M150,198.5c-2.7,0-4.3-2-4.3-1c0,1,0.8,2.8,4.3,2.8s4.3-1.8,4.3-2.8C154.3,196.5,152.7,198.5,150,198.5z"/>
	<path class="st6" d="M150,191.4c-12.2,0-19.6-5-19.6-3.7c0,1.3,3.5,6.3,19.6,6.3s19.6-5,19.6-6.3
		C169.6,186.3,162.2,191.4,150,191.4z"/>
</g>
<path class="st7" d="M69.4,276.5c23.3,14.9,51,23.5,80.6,23.5s57.4-8.6,80.6-23.5H150H69.4z"/>
<path class="st7" d="M150,229.3c-38.6,0-81.2,22.9-89.1,41.4c2.8,2,5.6,4,8.5,5.8H150V229.3z"/>
<path class="st7" d="M150,229.3v47.2h80.6c2.9-1.8,5.7-3.8,8.5-5.8C231.2,252.2,188.6,229.3,150,229.3z"/>
<path class="st8" d="M150,229.3c-9.1,0-18.4,1.3-27.5,3.5c0.1,0.1,10,13,27.5,13c16.1,0,26.9-11.1,28.4-12.8
	C169.1,230.7,159.4,229.3,150,229.3z"/>
<path class="st1" d="M131.4,230.9c0,0,5.4,6.8,18.6,6.8c13.2,0,18.6-6.8,18.6-6.8S149.3,223.9,131.4,230.9z"/>
<path class="st5" d="M209.4,47.8c0,0-26.8-34.3-82.5-21.4C71.2,39.3,67,73.1,68.7,105.9c1.7,32.8,6.1,52.1,11.4,49.7
	c5.3-2.4,2.5-24,3.1-29c0.6-5,5.6-27.6,39.5-24.2c33.9,3.4,62.4-9,62.4-9s11.5,14.6,19,17.4c15.1,5.6,10.2,42.9,16.1,42.9
	C226.1,153.6,255.1,67.4,209.4,47.8z"/>
</svg>
