<?xml version="1.0" encoding="utf-8"?>
<!-- Generator: Adobe Illustrator 22.0.1, SVG Export Plug-In . SVG Version: 6.00 Build 0)  -->
<svg version="1.1" id="圖層_1" xmlns="http://www.w3.org/2000/svg" xmlns:xlink="http://www.w3.org/1999/xlink" x="0px" y="0px"
	 viewBox="0 0 300 300" style="enable-background:new 0 0 300 300;" xml:space="preserve">
<style type="text/css">
	.st0{fill:none;}
	.st1{fill:#FFFFFF;}
</style>
<title>entertainment</title>
<path class="st0" d="M62.9,0h174.2C271.8,0,300,28.2,300,62.9v174.2c0,34.7-28.2,62.9-62.9,62.9H62.9C28.2,300,0,271.8,0,237.1V62.9
	C0,28.2,28.2,0,62.9,0z"/>
<path class="st1" d="M219.4,114.7c-0.5,0-1,0-1.4,0.2c-19.4-2-39.1-2.7-58.9-2.7c5.9-7.8,15.3-8.8,24.9-12.1
	c10.8-3.8,15.4-12.4,14.2-23.6c-0.8-7.1-12-7.2-11.2,0c1.4,12.3-6.6,13.1-16.6,15.9c-10.4,3-19.1,8.6-23.5,18.8
	c-0.1,0.4-0.3,0.7-0.4,1.1c-21.4,0.3-42.8,1.3-63.9,2.5c-0.2,0-0.4,0.1-0.6,0.1c-0.4-0.1-0.8-0.1-1.2-0.1
	c-34.2,1.4-46.8,41.8-34.5,70.7c5.7,13.3,18,24,32.5,25.9c22.1,2.8,39.7-11.3,49.5-30c14.6,0.9,29.2,0.4,43.8,0.3
	c9.9,18.5,27.3,32.4,49.3,29.6c14.6-1.9,26.8-12.6,32.5-25.9C266.2,156.4,253.6,116,219.4,114.7z M245.5,182.1
	c-5,10-13.8,19.3-25.6,20.3c-19.2,1.6-32.9-10.8-41-27.2c-0.9-1.6-2.5-2.6-4.3-2.7c-16.3,0-32.6,0.8-48.9-0.4
	c-1.9-0.3-3.7,0.9-4.1,2.8c-0.1,0.1-0.2,0.2-0.2,0.3c-8.2,16.4-21.9,28.8-41.1,27.2c-11.8-1-20.7-10.3-25.6-20.3
	c-11.2-22.6-0.9-57.4,26.1-58.5c0.2,0,0.4,0,0.6-0.1c0.4,0.1,0.8,0.1,1.2,0.1c47-2.6,95.5-4.6,142.3,0.9c0.4,0.1,0.8,0.1,1.2,0
	C248,129.5,255.8,161.5,245.5,182.1z"/>
<path class="st1" d="M97.8,152.6h-8V147c0-8.8-13.8-8.9-13.8,0v5.6h-6.5c-1.9,0-3.8,0.8-5.1,2.2c-1.1,1.3-1.7,3-1.7,4.6
	c-0.2,3.6,2.7,6.7,6.3,6.9c0.1,0,0.3,0,0.4,0h6.6v7c0.1,3.8,3.3,6.8,7.1,6.6c3.6-0.1,6.5-3,6.6-6.6v-7h8c3.8,0,6.9-3.1,6.9-6.9
	C104.7,155.7,101.6,152.6,97.8,152.6L97.8,152.6z"/>
<path class="st1" d="M217.6,137.8c-1.9,0-3.8,0.8-5.1,2.2c-1.1,1.3-1.7,2.9-1.7,4.6c-0.1,3.7,2.9,6.8,6.7,6.9c1.9,0,3.8-0.8,5.1-2.2
	c1.1-1.3,1.7-3,1.7-4.7c0.2-3.6-2.7-6.7-6.3-6.9C217.9,137.8,217.7,137.8,217.6,137.8z"/>
<path class="st1" d="M201.3,157.3c-1.9,0-3.8,0.8-5.1,2.2c-1.1,1.3-1.7,2.9-1.7,4.6c-0.2,3.6,2.7,6.7,6.3,6.9c0.1,0,0.3,0,0.4,0
	c1.9,0,3.8-0.8,5.1-2.2c1.1-1.3,1.7-2.9,1.7-4.6c0.2-3.6-2.7-6.7-6.3-6.9C201.6,157.3,201.5,157.3,201.3,157.3z"/>
<path class="st1" d="M231.5,155.4c-1.9,0-3.8,0.8-5.1,2.2c-1.1,1.3-1.7,2.9-1.7,4.6c-0.1,3.7,2.9,6.8,6.7,6.9c1.9,0,3.8-0.8,5.1-2.2
	c1.1-1.3,1.7-3,1.7-4.7c0.2-3.6-2.7-6.7-6.3-6.9C231.8,155.4,231.7,155.4,231.5,155.4z"/>
<path class="st1" d="M217.1,170.7c-1.9,0-3.8,0.8-5.1,2.2c-1.1,1.3-1.7,3-1.7,4.7c-0.1,3.7,2.9,6.8,6.7,6.9c1.9,0,3.8-0.8,5.1-2.2
	c1.1-1.3,1.7-3,1.7-4.6c0.2-3.6-2.7-6.7-6.3-6.9C217.4,170.7,217.3,170.7,217.1,170.7z"/>
<path class="st1" d="M141.9,144.7h-10.7c-3.8,0.1-6.8,3.3-6.6,7.1c0.1,3.6,3,6.5,6.6,6.6h10.7c3.8-0.1,6.8-3.3,6.6-7.1
	C148.4,147.7,145.5,144.9,141.9,144.7L141.9,144.7z"/>
<path class="st1" d="M173.5,144.7h-11.6c-3.8,0.1-6.8,3.3-6.6,7.1c0.1,3.6,3,6.5,6.6,6.6h11.6c3.8-0.1,6.8-3.3,6.6-7.1
	C180,147.7,177.1,144.9,173.5,144.7z"/>
</svg>
