<?xml version="1.0" encoding="utf-8"?>
<!-- Generator: Adobe Illustrator 22.0.1, SVG Export Plug-In . SVG Version: 6.00 Build 0)  -->
<svg version="1.1" id="圖層_1" xmlns="http://www.w3.org/2000/svg" xmlns:xlink="http://www.w3.org/1999/xlink" x="0px" y="0px"
	 viewBox="0 0 300 300" style="enable-background:new 0 0 300 300;" xml:space="preserve">
<style type="text/css">
	.st0{fill:none;}
	.st1{fill:#FFFFFF;}
</style>
<title>fork</title>
<path class="st0" d="M62.9,0h174.2C271.8,0,300,28.2,300,62.9v174.2c0,34.7-28.2,62.9-62.9,62.9H62.9C28.2,300,0,271.8,0,237.1V62.9
	C0,28.2,28.2,0,62.9,0z"/>
<g id="_群組_">
	<path id="_路徑_" class="st1" d="M114.4,174.6c-0.8,0.1-1.7,0.1-2.5,0.1c-2.2,0-4.5-0.3-6.6-0.8L55.2,224c-2.5,2.5-2.5,6.4,0,8.9
		c0,0,0,0,0,0l13,13c2.5,2.5,6.4,2.5,8.9,0c0,0,0,0,0,0l60.2-60.2l-11.2-12L114.4,174.6z"/>
	<path id="_路徑_2" class="st1" d="M246.2,94.4c-2.3-2.3-6.1-2.4-8.5,0c0,0,0,0,0,0l-32.4,32.5c-3.2,3-8.1,2.8-11.1-0.3
		c-2.8-3-2.8-7.7,0-10.8l32.3-32.3c2.4-2.4,2.4-6.4,0-8.8s-6.4-2.4-8.8,0l-32.3,32.3c-3.1,3.1-8,3.1-11.1,0c-3.1-3.1-3.1-8,0-11.1
		l0,0l32.4-32.5c2.4-2.4,2.4-6.2,0-8.5c-2.4-2.4-6.2-2.4-8.5,0l0,0l-36.5,36.5c-8.4,8.5-11.7,20.8-8.7,32.3l24.5,24.5
		c11.6,3,23.8-0.3,32.3-8.7l36.5-36.5C248.6,100.6,248.6,96.8,246.2,94.4C246.3,94.4,246.2,94.4,246.2,94.4z"/>
	<path id="_路徑_3" class="st1" d="M68.9,58.1c-1.2-1.2-2.9-1.9-4.7-1.9c-0.4,0-0.7,0-1.1,0.1c-2.1,0.4-3.9,1.7-4.9,3.6
		C47.6,82,52,108.5,69.4,125.8l31.1,31c3,3.1,7.2,4.8,11.5,4.8c0.5,0,0.9,0,1.4-0.1l18-1.5l78.7,84.9c1.2,1.3,2.9,2.1,4.7,2.1h0.1
		c1.8,0,3.5-0.7,4.7-1.9l13.5-13.5c2.6-2.6,2.6-6.8,0-9.3c0,0,0,0,0,0L68.9,58.1z"/>
</g>
</svg>
