<?xml version="1.0" encoding="utf-8"?>
<!-- Generator: Adobe Illustrator 22.0.1, SVG Export Plug-In . SVG Version: 6.00 Build 0)  -->
<svg version="1.1" id="圖層_1" xmlns="http://www.w3.org/2000/svg" xmlns:xlink="http://www.w3.org/1999/xlink" x="0px" y="0px"
	 viewBox="0 0 300 300" style="enable-background:new 0 0 300 300;" xml:space="preserve">
<style type="text/css">
	.st0{fill:#543C2A;}
	.st1{fill:#FCB6D0;}
	.st2{fill:#FDCC9B;}
	.st3{fill:#FCBC85;}
	.st4{fill:#3B2519;}
	.st5{fill:#FFFFFF;}
	.st6{fill:#684B37;}
	.st7{fill:#F7945E;}
	.st8{fill:#F9AA8D;}
	.st9{fill:#F5A860;}
	.st10{fill:none;}
	.st11{fill:#F18B45;}
</style>
<path class="st0" d="M57.8,157.2c-0.3,39.5,10.5,101.4,13.6,118.3c11.5-17.2,43.7-35.4,78.6-35.4V110.4
	C150,110.4,58.2,111.1,57.8,157.2z"/>
<g>
	<path class="st1" d="M150,0C67.2,0,0,67.2,0,150c0,53.6,28.1,100.6,70.4,127.1c0.3-0.5,0.6-1.1,1-1.6c-3.1-17-13.9-78.8-13.6-118.3
		c0.4-46.1,92.2-46.8,92.2-46.8s91.8,0.7,92.2,46.8c0.3,39.5-10.5,101.4-13.6,118.3c0.4,0.5,0.7,1.1,1,1.6
		C271.9,250.6,300,203.6,300,150C300,67.2,232.8,0,150,0z"/>
</g>
<path class="st0" d="M242.2,157.2c-0.4-46.1-92.2-46.8-92.2-46.8v129.8c34.9,0,67.1,18.2,78.6,35.4
	C231.7,258.6,242.5,196.7,242.2,157.2z"/>
<g>
	<g>
		<rect x="131" y="223.1" class="st2" width="37.9" height="42.5"/>
		<path class="st3" d="M131,228.1c0,0,16,10.2,37.9,7.8v-12.8H131V228.1z"/>
		<ellipse class="st3" cx="76.3" cy="157.2" rx="18.5" ry="21.1"/>
		<ellipse class="st3" cx="223.7" cy="157.2" rx="18.5" ry="21.1"/>
		<path class="st2" d="M223.6,116.9c0-31.1-22.8-53.9-73.6-53.9s-73.6,22.8-73.6,53.9S71.1,229.9,150,229.9
			C228.9,229.9,223.6,148,223.6,116.9z"/>
		<g>
			<g>
				<ellipse class="st4" cx="114.1" cy="152.2" rx="8" ry="8.7"/>
				<circle class="st5" cx="110.7" cy="148.3" r="2.4"/>
			</g>
			<path class="st6" d="M101.4,133.3c3.8,1.4,9.8-4.9,23.7,0.6c2.5,1,4-8.6-10.8-8.6C101.4,125.3,99.1,132.5,101.4,133.3z"/>
			<g>
				<ellipse class="st4" cx="186.8" cy="152.2" rx="8" ry="8.7"/>
				
					<ellipse transform="matrix(0.1602 -0.9871 0.9871 0.1602 7.6066 305.5436)" class="st5" cx="183.4" cy="148.3" rx="2.4" ry="2.4"/>
			</g>
			<path class="st6" d="M198.6,133.3c-3.8,1.4-9.8-4.9-23.7,0.6c-2.5,1-4-8.6,10.8-8.6C198.6,125.3,200.9,132.5,198.6,133.3z"/>
		</g>
		<path class="st3" d="M150,182.9c-7.9,0-12.6-5.9-12.6-3c0,2.8,2.3,8.3,12.6,8.3c10.3,0,12.6-5.4,12.6-8.3
			C162.6,177,157.9,182.9,150,182.9z"/>
		<path class="st3" d="M150,209c-2.7,0-4.4-2-4.4-1.1c0,1,0.8,2.9,4.4,2.9c3.6,0,4.4-1.9,4.4-2.9C154.4,207,152.7,209,150,209z"/>
		<path class="st7" d="M150,201.8c-12.5,0-20-5.1-20-3.8c0,1.3,3.6,6.4,20,6.4s20-5.1,20-6.4C170,196.7,162.5,201.8,150,201.8z"/>
	</g>
	<circle class="st8" cx="103.9" cy="180" r="10.8"/>
	<circle class="st8" cx="197.4" cy="180" r="10.8"/>
</g>
<path class="st9" d="M150,300c20.9,0,40.8-4.3,58.9-12H150H91.1C109.2,295.7,129.1,300,150,300z"/>
<path class="st9" d="M91.1,288H150v-8H75.1C80.3,283,85.6,285.6,91.1,288z"/>
<path class="st9" d="M71.4,275.6c-0.4,0.5-0.7,1.1-1,1.6c0.5,0.3,1,0.6,1.5,0.9C71.7,277.4,71.6,276.5,71.4,275.6z"/>
<path class="st9" d="M71.4,275.6c0.2,1,0.3,1.8,0.5,2.5c1.1,0.7,2.2,1.3,3.3,1.9H150v-39.8C115.1,240.2,82.9,258.4,71.4,275.6z"/>
<path class="st10" d="M154.4,240.3c0.7,0,1.5,0.1,2.2,0.1c0.4,0,0.9,0.1,1.3,0.1c0.7,0.1,1.3,0.1,2,0.2c0.5,0,0.9,0.1,1.4,0.2
	c0.6,0.1,1.2,0.1,1.8,0.2c0.5,0.1,1,0.1,1.4,0.2c0.6,0.1,1.2,0.2,1.8,0.3c0.5,0.1,1,0.2,1.4,0.2c0.6,0.1,1.2,0.2,1.7,0.3
	c0.5,0.1,1,0.2,1.5,0.3c0.6,0.1,1.1,0.2,1.7,0.3c0.5,0.1,1,0.2,1.5,0.3c0.5,0.1,1.1,0.3,1.6,0.4c0.5,0.1,1,0.2,1.5,0.4
	c0.5,0.1,1.1,0.3,1.6,0.4c0.5,0.1,1,0.3,1.4,0.4c0.5,0.2,1,0.3,1.6,0.5c0.5,0.1,1,0.3,1.4,0.5c0.5,0.2,1,0.3,1.5,0.5
	c0.5,0.2,0.9,0.3,1.4,0.5c0.5,0.2,1,0.3,1.5,0.5c0.5,0.2,0.9,0.4,1.4,0.5c0.5,0.2,1,0.4,1.4,0.6c0.5,0.2,0.9,0.4,1.4,0.6
	c0.5,0.2,0.9,0.4,1.4,0.6c0.5,0.2,0.9,0.4,1.4,0.6c0.4,0.2,0.9,0.4,1.3,0.6c0.5,0.2,0.9,0.4,1.4,0.6c0.4,0.2,0.9,0.4,1.3,0.6
	c0.4,0.2,0.9,0.4,1.3,0.7c0.4,0.2,0.8,0.4,1.2,0.6c0.4,0.2,0.9,0.5,1.3,0.7c0.4,0.2,0.8,0.4,1.2,0.7c0.4,0.2,0.9,0.5,1.3,0.7
	c0.4,0.2,0.8,0.4,1.1,0.7c0.4,0.3,0.8,0.5,1.3,0.8c0.4,0.2,0.7,0.5,1.1,0.7c0.4,0.3,0.8,0.5,1.2,0.8c0.3,0.2,0.7,0.5,1,0.7
	c0.4,0.3,0.8,0.5,1.2,0.8c0.3,0.2,0.6,0.5,1,0.7c0.4,0.3,0.8,0.6,1.2,0.8c0.3,0.2,0.6,0.5,0.9,0.7c0.4,0.3,0.8,0.6,1.1,0.9
	c0.3,0.2,0.6,0.5,0.8,0.7c0.4,0.3,0.7,0.6,1.1,0.9c0.3,0.2,0.5,0.4,0.8,0.7c0.4,0.3,0.7,0.6,1.1,0.9c0.2,0.2,0.5,0.4,0.7,0.7
	c0.3,0.3,0.7,0.6,1,1c0.2,0.2,0.4,0.4,0.6,0.6c0.3,0.3,0.7,0.7,1,1c0.2,0.2,0.4,0.4,0.6,0.6c0.3,0.3,0.6,0.7,0.9,1
	c0.2,0.2,0.3,0.4,0.5,0.6c0.3,0.4,0.6,0.7,0.9,1.1c0.1,0.2,0.3,0.3,0.4,0.5c0.3,0.4,0.6,0.8,0.9,1.2c0.1,0.1,0.2,0.2,0.2,0.3
	c0.3,0.4,0.6,0.9,0.9,1.3c3.1-17,13.9-78.8,13.6-118.3c-0.4-46.1-92.2-46.8-92.2-46.8v129.8c1.1,0,2.2,0,3.3,0.1
	C153.7,240.3,154.1,240.3,154.4,240.3z"/>
<path class="st9" d="M150,288h58.9c5.5-2.4,10.8-5,16-8H150V288z"/>
<path class="st9" d="M228.2,278c0.5-0.3,1-0.6,1.5-0.9c-0.3-0.5-0.6-1-1-1.6C228.4,276.5,228.3,277.3,228.2,278z"/>
<path class="st9" d="M227.7,274.3c-0.1-0.1-0.2-0.2-0.2-0.3c-0.3-0.4-0.6-0.8-0.9-1.2c-0.1-0.2-0.2-0.3-0.4-0.5
	c-0.3-0.4-0.6-0.7-0.9-1.1c-0.2-0.2-0.3-0.4-0.5-0.6c-0.3-0.3-0.6-0.7-0.9-1c-0.2-0.2-0.4-0.4-0.6-0.6c-0.3-0.3-0.7-0.7-1-1
	c-0.2-0.2-0.4-0.4-0.6-0.6c-0.3-0.3-0.7-0.6-1-1c-0.2-0.2-0.5-0.4-0.7-0.7c-0.3-0.3-0.7-0.6-1.1-0.9c-0.3-0.2-0.5-0.4-0.8-0.7
	c-0.4-0.3-0.7-0.6-1.1-0.9c-0.3-0.2-0.6-0.5-0.8-0.7c-0.4-0.3-0.8-0.6-1.1-0.9c-0.3-0.2-0.6-0.5-0.9-0.7c-0.4-0.3-0.8-0.6-1.2-0.8
	c-0.3-0.2-0.6-0.5-1-0.7c-0.4-0.3-0.8-0.5-1.2-0.8c-0.3-0.2-0.7-0.5-1-0.7c-0.4-0.3-0.8-0.5-1.2-0.8c-0.4-0.2-0.7-0.5-1.1-0.7
	c-0.4-0.3-0.8-0.5-1.3-0.8c-0.4-0.2-0.8-0.4-1.1-0.7c-0.4-0.2-0.9-0.5-1.3-0.7c-0.4-0.2-0.8-0.4-1.2-0.7c-0.4-0.2-0.9-0.5-1.3-0.7
	c-0.4-0.2-0.8-0.4-1.2-0.6c-0.4-0.2-0.9-0.4-1.3-0.7c-0.4-0.2-0.9-0.4-1.3-0.6c-0.4-0.2-0.9-0.4-1.4-0.6c-0.4-0.2-0.9-0.4-1.3-0.6
	c-0.5-0.2-0.9-0.4-1.4-0.6c-0.5-0.2-0.9-0.4-1.4-0.6c-0.5-0.2-0.9-0.4-1.4-0.6c-0.5-0.2-1-0.4-1.4-0.6c-0.5-0.2-0.9-0.4-1.4-0.5
	c-0.5-0.2-1-0.4-1.5-0.5c-0.5-0.2-0.9-0.3-1.4-0.5c-0.5-0.2-1-0.3-1.5-0.5c-0.5-0.2-1-0.3-1.4-0.5c-0.5-0.2-1-0.3-1.6-0.5
	c-0.5-0.1-1-0.3-1.4-0.4c-0.5-0.1-1.1-0.3-1.6-0.4c-0.5-0.1-1-0.3-1.5-0.4c-0.5-0.1-1.1-0.3-1.6-0.4c-0.5-0.1-1-0.2-1.5-0.3
	c-0.6-0.1-1.1-0.2-1.7-0.3c-0.5-0.1-1-0.2-1.5-0.3c-0.6-0.1-1.2-0.2-1.7-0.3c-0.5-0.1-1-0.2-1.4-0.2c-0.6-0.1-1.2-0.2-1.8-0.3
	c-0.5-0.1-1-0.1-1.4-0.2c-0.6-0.1-1.2-0.1-1.8-0.2c-0.5-0.1-0.9-0.1-1.4-0.2c-0.7-0.1-1.3-0.1-2-0.2c-0.4,0-0.9-0.1-1.3-0.1
	c-0.7,0-1.5-0.1-2.2-0.1c-0.4,0-0.7,0-1.1-0.1c-1.1,0-2.2-0.1-3.3-0.1V280h74.9c1.1-0.6,2.2-1.3,3.3-2c0.1-0.7,0.3-1.5,0.5-2.4
	C228.3,275.1,228,274.7,227.7,274.3z"/>
<path class="st11" d="M134.2,241.4c-0.2,0-0.5,0.1-0.7,0.1c-5.1,0.8-10.1,2-14.9,3.4l31.5,43v-23.9l-14.2-22.9
	C135.3,241.3,134.7,241.3,134.2,241.4z"/>
<path class="st11" d="M165.8,241.4c0.2,0,0.5,0.1,0.7,0.1c5.1,0.8,10.1,2,14.9,3.4L150,288v-23.9l14.2-22.9
	C164.7,241.3,165.3,241.3,165.8,241.4z"/>
<path class="st6" d="M150,25c-85.8,0-95.8,60.7-92.2,132.2c3.6,71.6,64.3,106.9,64.3,106.9s-68-97.4-11.4-182.7
	c0,0-10.6,18.3-10.1,33.6c0,0,13.3-4.6,49.4-4.6c36,0,49.4,4.6,49.4,4.6c0.6-15.3-10-33.6-10-33.6c56.6,85.4-11.4,182.7-11.4,182.7
	s60.7-35.3,64.3-106.9C245.8,85.7,235.8,25,150,25z"/>
<path class="st2" d="M131,241.8l19,31.5l19-31.5C169,241.8,149.3,234.7,131,241.8z"/>
</svg>
