<?xml version="1.0" encoding="utf-8"?>
<!-- Generator: Adobe Illustrator 22.0.1, SVG Export Plug-In . SVG Version: 6.00 Build 0)  -->
<svg version="1.1" id="圖層_1" xmlns="http://www.w3.org/2000/svg" xmlns:xlink="http://www.w3.org/1999/xlink" x="0px" y="0px"
	 viewBox="0 0 300 300" style="enable-background:new 0 0 300 300;" xml:space="preserve">
<style type="text/css">
	.st0{fill:none;}
	.st1{fill:#FFFFFF;}
</style>
<title>shopping</title>
<path class="st0" d="M62.9,0h174.2C271.8,0,300,28.2,300,62.9v174.2c0,34.7-28.2,62.9-62.9,62.9H62.9C28.2,300,0,271.8,0,237.1V62.9
	C0,28.2,28.2,0,62.9,0z"/>
<g id="Cart">
	<path class="st1" d="M253.4,68.3c-0.8-3-3.8-4.9-6.9-4.1l0,0l-22.6,5.7c-2.2,0.6-3.9,2.4-4.2,4.6l-2.9,18.1L77.4,109.3
		c-0.1,0-0.2,0.1-0.3,0.1c-0.1,0-0.3,0-0.4,0c-0.3,0.1-0.6,0.2-0.8,0.4c-0.3,0.1-0.6,0.3-0.9,0.4c-0.4,0.3-0.7,0.6-1,1
		c-0.2,0.1-0.4,0.3-0.5,0.5c0,0,0,0.1-0.1,0.1c-0.3,0.5-0.5,1-0.6,1.6c-0.1,0.2-0.2,0.4-0.2,0.6c-0.1,0.8-0.1,1.6,0.1,2.3l17,67.9
		l5.7,22.6c0,0.2,0.1,0.3,0.2,0.4c0.1,0.3,0.2,0.5,0.3,0.8c0.2,0.4,0.4,0.7,0.7,1c0.2,0.2,0.3,0.4,0.5,0.6c0.3,0.3,0.7,0.5,1.1,0.7
		c0.2,0.1,0.4,0.2,0.6,0.3c0.6,0.2,1.3,0.4,2,0.4h118.9c3.1,0.1,5.8-2.3,5.9-5.4s-2.3-5.8-5.4-5.9c-0.2,0-0.3,0-0.5,0H105.2
		l-2.8-11.3h106c0.7,0,1.4-0.1,2-0.4c0.2-0.1,0.5-0.2,0.7-0.4c0.4-0.2,0.7-0.4,1-0.6c0.2-0.2,0.4-0.4,0.6-0.7
		c0.3-0.3,0.5-0.5,0.7-0.9c0.1-0.3,0.2-0.7,0.3-1s0.3-0.6,0.3-0.9v-0.1v-0.1l16.4-103.6l19-4.8C252.4,74.4,254.2,71.3,253.4,68.3
		C253.5,68.3,253.5,68.3,253.4,68.3z M99.5,177.1l-14.4-57.4l17.6-2.1l8.5,59.5H99.5z M122.7,177.1l-8.7-60.8l17.6-2.1l2.9,62.9
		H122.7z M157.7,177.1h-11.9l-2.9-64.3l17.6-2.1L157.7,177.1z M180.7,177.1H169l2.9-67.8l17.6-2.1L180.7,177.1z M203.4,177.1h-11.3
		l8.9-71.3l12.1-1.4L203.4,177.1z M123.4,222.4c-6.2,0-11.3,5.1-11.3,11.3s5.1,11.3,11.3,11.3s11.3-5.1,11.3-11.3
		C134.7,227.4,129.7,222.4,123.4,222.4L123.4,222.4L123.4,222.4z M197,222.4c-6.2,0-11.3,5.1-11.3,11.3S190.8,245,197,245
		s11.3-5.1,11.3-11.3C208.4,227.4,203.3,222.4,197,222.4L197,222.4L197,222.4z"/>
</g>
</svg>
