<svg id="圖層_1" data-name="圖層 1" xmlns="http://www.w3.org/2000/svg" viewBox="0 0 300 300"><defs><style>.cls-1{fill:none;}.cls-2{fill:#fff;}</style></defs><title>coffee</title><rect class="cls-1" width="300" height="300" rx="62.88" ry="62.88"/><path class="cls-2" d="M213,137.4H194.1v-6.3a6.31,6.31,0,0,0-6.3-6.3H61.8a6.31,6.31,0,0,0-6.3,6.3v50.4a56.77,56.77,0,0,0,56.7,56.7h25.2a56.61,56.61,0,0,0,53.22-37.8H213a31.67,31.67,0,0,0,31.5-31.5A31.53,31.53,0,0,0,213,137.4Zm-31.5,44.1a44.15,44.15,0,0,1-44.1,44.1H112.2a44.15,44.15,0,0,1-44.1-44.1V137.4H181.5Zm44.76.77A18.34,18.34,0,0,1,213,187.8H193.46a54.41,54.41,0,0,0,.64-6.3V150H213a18.92,18.92,0,0,1,18.9,18.9A18.46,18.46,0,0,1,226.26,182.27Z" transform="translate(0 0)"/><path class="cls-2" d="M168.09,83.92c-4.18-7.45-1.56-10.79-1.14-11.26a6.3,6.3,0,0,0-8.53-9.27c-.44.4-10.78,9.87-1.31,26.7,4.27,7.59,1.46,10.91,1.31,11.1a6.3,6.3,0,0,0,8.36,9.43C167.22,110.23,177.56,100.75,168.09,83.92Z" transform="translate(0 0)"/><path class="cls-2" d="M124,83.92c-4.18-7.45-1.56-10.79-1.14-11.26a6.3,6.3,0,0,0-8.53-9.27c-.44.4-10.78,9.87-1.31,26.7,4.27,7.59,1.46,10.91,1.31,11.1a6.3,6.3,0,0,0,8.36,9.43C123.12,110.23,133.46,100.75,124,83.92Z" transform="translate(0 0)"/><path class="cls-2" d="M79.89,83.92c-4.18-7.45-1.56-10.79-1.14-11.26a6.3,6.3,0,0,0-8.53-9.27c-.44.4-10.78,9.87-1.31,26.7,4.27,7.59,1.46,10.91,1.31,11.1a6.3,6.3,0,0,0,8.36,9.43C79,110.23,89.36,100.75,79.89,83.92Z" transform="translate(0 0)"/></svg>