<svg id="圖層_1" data-name="圖層 1" xmlns="http://www.w3.org/2000/svg" viewBox="0 0 300 300"><defs><style>.cls-1{fill:none;}.cls-2{fill:#fff;}</style></defs><title>else</title><path class="cls-1" d="M62.9,0H237.1A63,63,0,0,1,300,62.9V237.1A63,63,0,0,1,237.1,300H62.9A63,63,0,0,1,0,237.1V62.9A63,63,0,0,1,62.9,0Z"/><path class="cls-2" d="M220.69,53H169.15a36.3,36.3,0,0,0-25.86,10.71L52.93,154.08a23.67,23.67,0,0,0,0,33.47l53.53,53.53a23.67,23.67,0,0,0,33.46,0l90.37-90.37A36.28,36.28,0,0,0,241,124.85V73.31A20.33,20.33,0,0,0,220.69,53Zm-24.38,65a20.31,20.31,0,1,1,20.31-20.31A20.33,20.33,0,0,1,196.31,118Z"/></svg>