<svg id="圖層_1" data-name="圖層 1" xmlns="http://www.w3.org/2000/svg" viewBox="0 0 300 300"><defs><style>.cls-1{fill:none;}.cls-2{fill:#fff;}</style></defs><title>gift</title><rect class="cls-1" width="300" height="300" rx="62.88" ry="62.88"/><path class="cls-2" d="M230.72,109.53H194.23a45.12,45.12,0,0,0,6.44-5.16,24.13,24.13,0,0,0,0-33.92c-9-9.09-24.78-9.1-33.82,0-5,5-18.27,25.44-16.43,39.08h-.84c1.83-13.64-11.43-34.07-16.43-39.08-9-9.1-24.79-9.09-33.82,0a24.13,24.13,0,0,0,0,33.92,45.84,45.84,0,0,0,6.45,5.16H69.28a11.55,11.55,0,0,0-11.53,11.53v28.83a5.76,5.76,0,0,0,5.77,5.76h5.76v69.19a11.55,11.55,0,0,0,11.53,11.53H219.19a11.55,11.55,0,0,0,11.53-11.53V155.65h5.76a5.76,5.76,0,0,0,5.77-5.76V121.06A11.55,11.55,0,0,0,230.72,109.53ZM107.51,78.58a12.28,12.28,0,0,1,17.47,0c7.77,7.82,15.5,27.79,12.81,30.57a3.82,3.82,0,0,1-2.13.38c-8,0-23.18-8.28-28.15-13.29A12.57,12.57,0,0,1,107.51,78.58Zm36.72,146.26H80.81V155.65h63.42Zm0-80.72H69.28V121.06h74.95ZM175,78.58a12.42,12.42,0,0,1,17.47,17.66c-5,5-20.18,13.29-28.15,13.29a3.81,3.81,0,0,1-2.14-.38C159.52,106.37,167.25,86.4,175,78.58Zm44.17,146.26H155.77V155.65h63.42Zm11.53-80.72H155.77V121.06h74.95Z" transform="translate(0 0)"/></svg>