<svg id="圖層_1" data-name="圖層 1" xmlns="http://www.w3.org/2000/svg" viewBox="0 0 300 300"><defs><style>.cls-1{fill:none;}.cls-2{fill:#fff;}</style></defs><title>heart</title><path class="cls-1" d="M62.9,0H237.1A63,63,0,0,1,300,62.9V237.1A63,63,0,0,1,237.1,300H62.9A63,63,0,0,1,0,237.1V62.9A63,63,0,0,1,62.9,0Z"/><path class="cls-2" d="M238,75a58.19,58.19,0,0,0-82.31,0l-5.42,5.42L144.83,75A58.2,58.2,0,0,0,62.52,157.3l81.32,81.32a8.93,8.93,0,0,0,4.71,2.47,9.42,9.42,0,0,0,1.75.16,8.94,8.94,0,0,0,6.36-2.63L238,157.3A58.27,58.27,0,0,0,238,75Zm-12.72,69.6-75,75-75-75A40.22,40.22,0,0,1,132.11,87.7l11.78,11.78a9.25,9.25,0,0,0,12.72,0L168.38,87.7a40.22,40.22,0,0,1,56.88,56.89Z"/></svg>