<svg id="圖層_1" data-name="圖層 1" xmlns="http://www.w3.org/2000/svg" viewBox="0 0 300 300"><defs><style>.cls-1{fill:none;}.cls-2{fill:#fff;}</style></defs><title>house</title><path class="cls-1" d="M62.9,0H237.1A63,63,0,0,1,300,62.9V237.1A63,63,0,0,1,237.1,300H62.9A63,63,0,0,1,0,237.1V62.9A63,63,0,0,1,62.9,0Z"/><path class="cls-2" d="M253.1,140l-98.86-90a2.65,2.65,0,0,0-.56-.44,5.77,5.77,0,0,0-7.91-.14l-98.86,90a6,6,0,0,0-.48,8.4,5.82,5.82,0,0,0,4.37,2,5.75,5.75,0,0,0,3.89-1.5l17.8-16.23v105a14.84,14.84,0,0,0,14.69,15h31.2a13.92,13.92,0,0,0,13.78-14V184.64a2.13,2.13,0,0,1,2.12-2.15h31.5a2.13,2.13,0,0,1,2.11,2.15V238a13.92,13.92,0,0,0,13.79,14h31.19c8.21,0,14.69-8.23,14.69-18.74V132.69l17.81,16.24a5.81,5.81,0,0,0,8.25-.49A6.13,6.13,0,0,0,253.1,140Zm-37.25,29.34V233.2c0,4.27-2.07,6.86-3,6.86h-31.2a2.13,2.13,0,0,1-2.11-2.15V184.64a13.92,13.92,0,0,0-13.79-14h-31.5a13.92,13.92,0,0,0-13.78,14V238a2.14,2.14,0,0,1-2.12,2.15H87.13a3.06,3.06,0,0,1-3-3.08V121.48L149.7,61.83l66.15,60.22v47.33Z"/></svg>