<svg id="圖層_1" data-name="圖層 1" xmlns="http://www.w3.org/2000/svg" viewBox="0 0 300 300"><defs><style>.cls-1{fill:none;}.cls-2{fill:#fffefd;}</style></defs><title>shoppingbag</title><rect class="cls-1" width="300" height="300" rx="62.88" ry="62.88"/><g id="Bag"><path class="cls-2" d="M231.35,101.92a6.78,6.78,0,0,0-6.76-6.17h-33.9V82.19a40.69,40.69,0,0,0-81.38,0V95.75H75.41a6.78,6.78,0,0,0-6.76,6.17L55.09,251.11a6.79,6.79,0,0,0,6.75,7.39H238.16a6.79,6.79,0,0,0,6.75-7.39ZM122.88,82.19a27.13,27.13,0,1,1,54.25,0V95.75H122.88ZM69.28,244.94,81.6,109.31h27.71v15.44a13.57,13.57,0,1,0,13.57,0V109.31h54.25v15.44a13.56,13.56,0,1,0,13.56,0V109.31H218.4l12.32,135.63Z" transform="translate(0 0)"/></g></svg>