<?xml version="1.0" encoding="utf-8"?>
<!-- Generator: Adobe Illustrator 22.0.1, SVG Export Plug-In . SVG Version: 6.00 Build 0)  -->
<svg version="1.1" id="圖層_1" xmlns="http://www.w3.org/2000/svg" xmlns:xlink="http://www.w3.org/1999/xlink" x="0px" y="0px"
	 viewBox="0 0 300 300" style="enable-background:new 0 0 300 300;" xml:space="preserve">
<style type="text/css">
	.st0{fill:none;}
	.st1{fill:#FFFFFF;}
</style>
<title>traffic</title>
<path class="st0" d="M62.9,0h174.2C271.8,0,300,28.2,300,62.9v174.2c0,34.7-28.2,62.9-62.9,62.9H62.9C28.2,300,0,271.8,0,237.1V62.9
	C0,28.2,28.2,0,62.9,0z"/>
<path class="st1" d="M244.9,123.8c-0.9-1.1-2.3-1.8-3.8-1.8h-18.7c-4.6-12.2-10.6-24.1-17.4-28.6c-23.6-15.5-86.3-15.5-109.9,0
	c-6.8,4.5-12.8,16.4-17.5,28.6H58.9c-2.7,0-4.9,2.2-4.9,4.9c0,0.3,0,0.7,0.1,1l2.8,13.4c0.5,2.3,2.5,3.9,4.8,3.9h5.5
	c-5.2,6-8,13.7-8,21.7c-0.2,9.2,3.5,18.1,10.3,24.4l0.2,0.2v18.8c0,4.1,3.3,7.4,7.4,7.4h17.3c4.1,0,7.4-3.3,7.4-7.4v-7.5h96.6v7.5
	c0,4.1,3.3,7.4,7.4,7.4h17.2c4.1,0,7.4-3.3,7.4-7.4v-18.4c13.1-12.5,14.1-33,2.1-46.6h5.9c2.3,0,4.3-1.6,4.8-3.9l2.8-13.4
	C246.2,126.4,245.8,124.9,244.9,123.8z M103.2,105.7c18.8-12.4,74.9-12.4,93.7,0c3.6,2.4,8.4,12.1,12.7,24h-119
	C94.8,117.8,99.5,108.1,103.2,105.7z M81.1,168.7c0-8,6.5-14.5,14.5-14.5c8,0,14.5,6.5,14.5,14.5c0,8-6.5,14.5-14.5,14.5
	c0,0,0,0,0,0C87.6,183.2,81.1,176.7,81.1,168.7L81.1,168.7z M204.6,183.2c-8,0-14.5-6.5-14.5-14.5c0-8,6.5-14.5,14.5-14.5
	c8,0,14.5,6.5,14.5,14.5c0,0,0,0,0,0C219.1,176.7,212.6,183.2,204.6,183.2C204.6,183.2,204.6,183.2,204.6,183.2L204.6,183.2z"/>
</svg>
