<svg id="圖層_1" data-name="圖層 1" xmlns="http://www.w3.org/2000/svg" viewBox="0 0 300 300"><defs><style>.cls-1{fill:#4b5759;}.cls-2{fill:#e89f9f;}.cls-3{fill:none;stroke:#e89f9f;stroke-miterlimit:10;stroke-width:13.03px;}.cls-4{fill:#e79f9f;}</style></defs><title>icon-circle</title><circle class="cls-1" cx="150" cy="150" r="150"/><path class="cls-2" d="M226.85,181.15c-3.4-18.74-18.85-28.82-34.59-37.14-20.49-10.83-44.09-15.84-61.64-31.79-3.08-2.8-6-6-7.61-10-3.45-8.44-.34-17.06,5.67-23.41,11.55-12.22,29.4-12.22,44.69-7.86,5.14,1.47,10.07,3.29,14.18,6.77,7.28,6.15,13.12,14.21,18.58,21.93a16,16,0,0,0,3.57,3.89,8.9,8.9,0,0,0,7.68,1c5.89-2,5.37-9.84,3.33-14.44-10.34-23.26-38.13-34.46-62.06-34.83-25.21-.4-59.8,14.92-62.62,43.2-1.87,18.61,0,37.22,27,54s66.06,28.85,68.85,45.59c1.36,8.12.8,16.32-4.74,22.8A37.58,37.58,0,0,1,168,232.71a40.6,40.6,0,0,1-11.4,1.26c-4.2-.12-8.45-1.28-12.55-2.1-7.12-1.4-14.55-2.49-21.19-5.58a42.49,42.49,0,0,1-10.15-6.79c-3-2.65-5.35-6.31-8.6-8.59a5.8,5.8,0,0,1-2-1.75c-.4-.74-.4-1.67-.92-2.33a3.62,3.62,0,0,0-1.33-.94c-.91-.47-6.39-3-6-4.44-1.18,3.9-.65,9,0,12.13,5.27,25.15,35.88,31.08,57.26,33.33a90,90,0,0,0,40.45-4.57c9.64-3.55,18.65-9.11,25.45-16.89a44.84,44.84,0,0,0,10.24-20.62c.21-1,.37-2,.5-3A70.74,70.74,0,0,0,226.85,181.15Z"/><path class="cls-2" d="M88.58,188.8a348.83,348.83,0,0,0,22.35,28.61,34.27,34.27,0,0,0,5.07,4.86c4.17,3.13,9.52,4.37,14.38,6a105.22,105.22,0,0,0,10.13,3,.47.47,0,0,1,.32.16.53.53,0,0,1,0,.33c-.25,2.12-.75,4.18-1.11,6.27l-34.43-13L84,194.11Z"/><path class="cls-3" d="M125.19,233.85c-5.61.6-10.58-3.38-14.74-7.2-7.49-6.9-14.76-14.13-20.56-22.5s-10.11-18-11.14-28.08c-.4-3.95-.21-8.26,2.18-11.44a11.77,11.77,0,0,1,9.5-4.33,19.43,19.43,0,0,1,10.15,3.35,29.42,29.42,0,0,1,11.88,15,25.14,25.14,0,0,1,.45-18.34,26,26,0,0,1,12.76-13.23,26.35,26.35,0,0,1,8.71-2.37,21.32,21.32,0,0,1,14.08,3.39,15.55,15.55,0,0,1,6.82,12.47c0,6.26-4.32,11.59-8.38,16.35L124,203.76"/><path class="cls-2" d="M83.3,181.71c2.36,7,6.76,13.45,10.6,19.68.95,1.53,3.36.13,2.41-1.41-3.7-6-8-12.29-10.32-19-.57-1.69-3.27-1-2.69.74Z"/><path class="cls-2" d="M96.15,212.7a90.53,90.53,0,0,0,13.06,11.61c5.45,3.73,11.73,6.37,17.62,9.29,11.94,5.92,24.07,9.38,37.5,8.54,5.36-.33,5.4-8.71,0-8.37-12.71.79-23.65-2.6-34.9-8.21-4.88-2.43-10-4.66-14.62-7.58-4.8-3-8.78-7.17-12.74-11.2-3.78-3.85-9.7,2.07-5.92,5.92Z"/><path class="cls-2" d="M82.81,206.19C89.91,218,97.64,229.41,111,234.48c5,1.92,7.23-6.17,2.23-8.07-11-4.2-17.39-14.81-23.19-24.45-2.78-4.61-10-.4-7.23,4.23Z"/><path class="cls-2" d="M147.18,240.41c5.85.12,11.66,1.43,17.49.48,4.72-.78,9.27-2.91,13.6-4.86,10-4.5,16.26-11.47,22.23-20.43,3-4.5-4.25-8.7-7.23-4.23-5.24,7.87-10.5,13.51-19.22,17.43-3.68,1.65-7.74,3.56-11.8,4-5,.56-10.1-.7-15.07-.79-5.39-.11-5.39,8.26,0,8.37Z"/><path class="cls-2" d="M131.09,235.73c15,4,31,4.62,45.56-1.39a51.07,51.07,0,0,0,16.73-11c5.34-5.35,7.51-11.41,8.66-18.75.82-5.28-7.25-7.55-8.08-2.23-1,6.21-2.42,11.13-7.09,15.62a43.42,43.42,0,0,1-15.5,9.42c-12.33,4.41-25.59,3.55-38.06.21-5.21-1.4-7.43,6.68-2.22,8.07Z"/><path class="cls-2" d="M106,178.67a25.67,25.67,0,0,0,5.44,4.91c2.09,1.45,5.71.06,6.15-2.5a23.24,23.24,0,0,0,.38-5.58,4.26,4.26,0,0,0-4.19-4.18c-2.14.09-4.35,1.84-4.19,4.18a17.58,17.58,0,0,1,0,2.05c0,.32,0,.63-.06.94-.07.92.12-.64,0,.36l6.15-2.5-.54-.38c-.86-.61.38.35-.07-.05s-.76-.64-1.12-1a20.87,20.87,0,0,1-2-2.19c-1.39-1.71-4.51-1.54-5.93,0a4.33,4.33,0,0,0,0,5.93Z"/><path class="cls-2" d="M120.58,197.31q-7,6.41-13.65,13.19c-2.13,2.17-1.28,6.27,1.85,7,8.07,1.86,15.07-5.06,20.06-10.58l-7-4.08c-2.75,7.73-12.31,12.12-18.91,16Q90.89,226,78.23,232l5.07,6.58c8.31-8.11,17.92-14.51,27.6-20.84l-5.07-6.57a120.89,120.89,0,0,1-30.15,19.48c-4.9,2.23-.65,9.45,4.23,7.23a128.2,128.2,0,0,0,31.84-20.79c3.54-3.14-1.09-9.18-5.07-6.58-10.27,6.71-20.49,13.55-29.3,22.15-3.56,3.48.94,8.55,5.07,6.58A311.63,311.63,0,0,0,112,223.2c7.5-4.65,14.88-9.47,18-18.13,1.4-3.94-4.26-7.1-7-4.07-2.36,2.6-7.82,9.37-11.92,8.42l1.85,7q6.66-6.78,13.66-13.19c4-3.65-2-9.56-5.93-5.92Z"/><path class="cls-2" d="M105,177.38a18.54,18.54,0,0,0,3.55,6,5.79,5.79,0,0,0,4.82,1.38c4.45-.44,5.88-6.24,4.5-9.89l-2.55,1.08a12.47,12.47,0,0,1,.79,2.47c.4,1.77,3,1,2.69-.75l-.33-1.92-2.69.75a4.5,4.5,0,0,1-2.62,5.84c-2.7.95-3.78-2.32-4.66-4.3a1.41,1.41,0,0,0-2.55.33c-.49,3.41,2.94,7.93,6.59,7.6,4.59-.41,5.74-5.43,5.56-9.22-.08-1.79-2.87-1.8-2.79,0,.1,2,.11,5.07-2.06,6.18-1.59.8-2.42-.21-3.36-1.38-.53-.65-1.38-1.53-1.25-2.43l-2.55.33c1.59,3.57,3.71,7.18,8.16,5.48a7.33,7.33,0,0,0,4.22-9.18,1.4,1.4,0,0,0-2.69.75l.33,1.92,2.69-.75a16.52,16.52,0,0,0-1.07-3.13c-.64-1.43-3.11-.41-2.55,1.08a7,7,0,0,1,.19,3.42c-.29,2-1.27,3.1-3.4,2.9s-3.54-3.44-4.27-5.29c-.66-1.64-3.36-.93-2.7.74Z"/><path class="cls-2" d="M127.42,205.85a39,39,0,0,1-5.19,5.93l2,2c4.45-4.76,8.48-9.25,11.85-14.84a1.4,1.4,0,0,0-2.41-1.41c-3.23,5.36-7.15,9.72-11.41,14.28a1.39,1.39,0,0,0,2,2,42.43,42.43,0,0,0,5.63-6.49c1-1.49-1.41-2.89-2.41-1.41Z"/><path class="cls-2" d="M121.44,200.13a66.06,66.06,0,0,1,10.73-9.8c1.44-1.05.05-3.47-1.41-2.41a69.38,69.38,0,0,0-11.29,10.23c-1.19,1.35.78,3.33,2,2Z"/><path class="cls-1" d="M164.63,149.68c-.95-6.3-4-12.71-9.95-15.66-5.69-2.84-12.88-1.26-18.75.23a36.12,36.12,0,0,0-17,9.22c-5.07,5.1,2.82,13,7.9,7.9s13.72-8.08,20.76-7.74c3.83.19,5.51,4,6,7.41.52,3.91-1.55,8.21-3.08,11.73-2.83,6.53,6.78,12.22,9.64,5.64C162.68,162.55,165.61,156.21,164.63,149.68Z"/><path class="cls-4" d="M150.05,170.46c.53,0,1.15.5,1.59.77a18.66,18.66,0,0,1,1.72,1.18,1.4,1.4,0,0,0,1.91-.5,1.43,1.43,0,0,0-.5-1.91c-1.29-1-3-2.36-4.72-2.33a1.4,1.4,0,0,0,0,2.79Z"/><path class="cls-1" d="M114.7,146.69s10.1,8,11.3,7.63c0,0,2.65-5.39,6.58-7.09l-8.18-6.35-1.56-.71S117.08,144.12,114.7,146.69Z"/><path class="cls-1" d="M147.2,165.56l11.62,5.77,3.13-7.16-9.41-6.36S150.91,162.79,147.2,165.56Z"/><polygon class="cls-2" points="147.2 165.54 158.36 171.11 149.99 177.63 147.2 165.54"/><path class="cls-1" d="M150.56,165.69c1.08-1.81,2.44-3.29,3.38-5.2a25.83,25.83,0,0,0,2.21-5.3c.43-1.75-2.26-2.49-2.69-.75a25.06,25.06,0,0,1-2.22,5.23c-.86,1.68-2.14,3-3.09,4.61a1.4,1.4,0,0,0,2.41,1.41Z"/><path class="cls-1" d="M147.55,165.54a9.68,9.68,0,0,1,1.14-1.26c.13-.13-.07-.32-.2-.2a9.78,9.78,0,0,0-1.18,1.32c-.11.15.13.28.24.14Z"/><path class="cls-1" d="M148.08,164.43a3.08,3.08,0,0,1-.69.9c-.15.1,0,.34.14.24a3,3,0,0,0,.79-1c.1-.15-.15-.29-.24-.14Z"/><path class="cls-2" d="M126,154.31s.69,1-11.41-7.38l3.73,8.37Z"/><path class="cls-1" d="M126.82,153.44c6.15-5.63,12.6-9.64,21.14-10.23,1.78-.12,1.79-2.92,0-2.79-9.38.64-16.36,4.87-23.12,11.05-1.33,1.21.65,3.18,2,2Z"/><path class="cls-1" d="M126.9,153c-.35.35-.63.82-1,1.13l.24.1V154c0-.18-.29-.18-.28,0v.18a.14.14,0,0,0,.24.1c.38-.31.65-.78,1-1.13.13-.13-.07-.32-.2-.2Z"/><path class="cls-2" d="M85.75,225.56c-3.45,1.81-7.37,3.4-10.46,5.8-1.76,1.38-2.77,3.25-1.43,5.33a7.94,7.94,0,0,0,7.47,3.09c3.72-.77,7.35-4.63,10.33-6.81,1.43-1.05,0-3.47-1.41-2.41l-5.88,4.3a16.27,16.27,0,0,1-2.47,1.72c-1.06.5-4.74.6-5.45-1.1-1.08-2.59,9-6.6,10.71-7.51s.18-3.24-1.41-2.41Z"/><path class="cls-2" d="M90,222a105.27,105.27,0,0,1-9.56,5.51c-2.54,1.34-6.75,2.15-7.75,5.36-.78,2.53,1.08,4.17,3.41,4.65a9.53,9.53,0,0,0,8-2.28c1.4-1.13-.58-3.09-2-2s-8.29,2.87-5.81-.68c.75-1.09,4.18-2,5.48-2.67,3.28-1.82,6.45-3.42,9.57-5.51,1.48-1,.08-3.42-1.41-2.41Z"/><path class="cls-2" d="M85,204.13a23,23,0,0,1-3-6.86,1.4,1.4,0,0,0-2.69.74,25.58,25.58,0,0,0,3.3,7.53c1,1.5,3.4.1,2.41-1.41Z"/><path class="cls-2" d="M73.35,231.17c-2.39,2.41-1.2,6.79,1.39,8.65,3.45,2.47,7,0,9.32-2.68,1.19-1.34-.78-3.32-2-2S79.4,238.38,77.4,238c-1.73-.33-3.52-3.41-2.07-4.86a1.4,1.4,0,0,0-2-2Z"/><path class="cls-2" d="M75.4,233c1.25-1.91,5-2.09,7-2.42,1.77-.28,1-3-.74-2.69-3,.48-6.88.92-8.71,3.71-1,1.5,1.42,2.9,2.41,1.4Z"/><path class="cls-2" d="M78.37,240.8A14.48,14.48,0,0,0,86,237.07c1.32-1.22-.66-3.19-2-2a11.88,11.88,0,0,1-6.37,3c-1.77.28-1,3,.74,2.69Z"/><path class="cls-2" d="M147.89,182.54l1.32,71.37c.27,14.35,22.6,14.4,22.33,0l-1.32-71.37c-.26-14.36-22.59-14.4-22.33,0Z"/><path class="cls-2" d="M168.24,120.86q-1.52-37.92-.17-75.86c.51-14.37-21.82-14.35-22.33,0q-1.34,37.92.17,75.86c.57,14.33,22.9,14.4,22.33,0Z"/><path class="cls-2" d="M160.46,130.61a31.52,31.52,0,0,1,4.44,4.58,6.89,6.89,0,0,0,1.83,1.78.72.72,0,0,0,1-.42c1.74-4.7.66-10.84.32-15.72a.71.71,0,0,0-1.05-.61c-1.54.9-1.66,3.94-2,5.49a24.08,24.08,0,0,0-.35,8.12c.11.83,1.31.54,1.37-.18l.54-6.46-1.37.19q.58,3.47.86,7a.7.7,0,0,0,1.4,0,28.17,28.17,0,0,0-.84-9.71c-.2-.9-1.47-.49-1.35.37q.69,5,1.7,10l1.17-.68a23.68,23.68,0,0,1-4-6.86c-.21-.56-1.24-.76-1.34,0a14.3,14.3,0,0,0,.23,5.49l1.28-.54-1.06-2.33-1.1.85a30.75,30.75,0,0,0,2.93,2.55l.71-1.2-1.09-1-.85,1.1a31,31,0,0,0,3.51,2.07.7.7,0,0,0,1-.6l.05-1.06c.05-.9-1.35-.89-1.39,0l0,1.06,1-.6a30.78,30.78,0,0,1-3.51-2.07c-.72-.49-1.3.52-.85,1.09a3,3,0,0,0,1.37,1.2c.8.48,1.4-.68.71-1.2a25.76,25.76,0,0,1-2.65-2.34c-.59-.59-1.41.16-1.09.85l1,2.33c.34.74,1.45.2,1.28-.54a12.65,12.65,0,0,1-.24-4.75h-1.34a25.92,25.92,0,0,0,4.33,7.48c.48.58,1.29-.06,1.17-.68-.68-3.32-1.24-6.66-1.7-10l-1.35.37a27,27,0,0,1,.79,9.34h1.4c-.2-2.47-.5-4.9-.91-7.34-.14-.83-1.31-.55-1.38.18l-.54,6.46,1.37-.19a21.47,21.47,0,0,1,.25-6.83c.18-1,.57-4.7,1.44-5.2l-1.05-.6c.32,4.74,1.4,10.81-.28,15.35l1-.42c-1.17-.7-1.93-2.12-2.81-3.13a26.59,26.59,0,0,0-3.18-3c-.69-.56-1.69.42-1,1Z"/><path class="cls-2" d="M166.52,125.63V130a.7.7,0,0,0,1.4,0v-4.32a.7.7,0,0,0-1.4,0Z"/><path class="cls-2" d="M168,175.81a40.54,40.54,0,0,0,.88,5.69c.21.88,1.5.49,1.35-.38-.33-2,.4-3.89.54-5.83.06-.9-1.33-.89-1.39,0-.15,2.11-.85,4.07-.5,6.21l1.35-.38a36.65,36.65,0,0,1-.83-5.31c-.07-.89-1.47-.9-1.4,0Z"/><path class="cls-2" d="M159.19,171.16a7.48,7.48,0,0,0-.84.54.73.73,0,0,0-.25,1,.69.69,0,0,0,1,.25,6.86,6.86,0,0,1,.85-.55c.79-.43.08-1.63-.71-1.2Z"/></svg>